ply
format ascii 1.0
comment File exported by Rhinoceros Version 7.0
element vertex 289
property float x
property float y
property float z
property float nx
property float ny
property float nz
property uchar red
property uchar green
property uchar blue
element face 256
property list uchar uint vertex_indices
element material 1
property uchar ambient_red
property uchar ambient_green
property uchar ambient_blue
property uchar ambient_alpha
property uchar diffuse_red
property uchar diffuse_green
property uchar diffuse_blue
property uchar diffuse_alpha
property uchar emissive_red
property uchar emissive_green
property uchar emissive_blue
property uchar emissive_alpha
property uchar specular_red
property uchar specular_green
property uchar specular_blue
property uchar specular_alpha
property double shine
property double transparency
end_header
35.2167405611722 167.34999030024 6.90371157430032 -0.01526849 0.1517045 0.988308 250 250 250
34.7465932835289 174.362937875108 4.55001207747976 -0.04922565 0.3377384 0.939952 250 250 250
59.6174124858543 162.134320657627 7.03583896491393 0.02642077 0.06793621 0.9973398 250 250 250
35.0791026969927 147.982843140574 6.3882108334603 -0.01263998 -0.1719769 0.9850199 250 250 250
35.5385282774264 155.352086222716 7.24292632351908 -0.04197548 -0.07187338 0.9965301 250 250 250
44.1406169137177 158.995240274579 7.50700369229248 0.02028739 0.01473829 0.9996855 250 250 250
33.4139393303544 172.010423087354 5.76747244500856 -0.0003092725 0.2747433 0.9615176 250 250 250
34.17268323289 163.955641183626 7.0732163489364 -0.03587703 0.08106459 0.9960629 250 250 250
37.1648490041735 162.632922327865 7.354061332096 -0.02245514 0.07877909 0.9966392 250 250 250
38.4452368209504 165.696044530682 7.07393134250032 -0.003602943 0.1249582 0.9921555 250 250 250
39.9133911388606 168.234094270151 6.71859770997653 0.002539552 0.1660718 0.9861104 250 250 250
36.7426244640582 169.907021034768 6.2267152692398 -0.01736579 0.1936632 0.9809144 250 250 250
32.1252836657293 168.586388378465 6.59546384827233 -0.01571702 0.1664928 0.9859174 250 250 250
31.0270108015568 165.022544105962 6.94535113221355 -0.02620743 0.08852862 0.9957288 250 250 250
32.7482792535936 175.005589907857 4.82185658485675 0.04595187 0.2940708 0.9546784 250 250 250
35.8062543577502 173.540462289159 5.56750616580013 -0.07384012 0.3272718 0.9420407 250 250 250
35.7360246760276 176.77543944725 4.23097852925881 -0.06119956 0.2633133 0.9627672 250 250 250
32.9777013438861 177.912452351341 4.10151339420234 0.04049878 0.2390929 0.9701518 250 250 250
37.8182996841119 175.530251971313 4.89801355253677 -0.08552479 0.3056614 0.9482914 250 250 250
60.0634786947648 157.23924173158 7.01250174598749 0.02876024 -0.04593888 0.9985301 250 250 250
63.0305416725814 157.235548132542 6.92871497404314 0.02143696 -0.04764403 0.9986343 250 250 250
63.0305416725814 161.562804606365 7.03383933418434 0.01535049 0.04964677 0.9986489 250 250 250
55.9499892653077 166.098783625869 6.72078864690633 0.04744982 0.1763806 0.9831777 250 250 250
53.8217708441803 164.502122841403 6.97013009451478 0.02390323 0.104022 0.9942877 250 250 250
56.3101194465832 160.782292409495 7.16077153240001 0.02675789 0.02995711 0.999193 250 250 250
61.391699474093 164.753971575859 6.70305167652241 0.03061065 0.1363567 0.9901868 250 250 250
57.5000995868887 167.719658004033 6.22050262710665 0.06546869 0.2264508 0.9718199 250 250 250
37.2050339937153 148.595125581227 6.56428948763552 -0.01302875 -0.1732954 0.9847837 250 250 250
36.6032766003238 151.678254778837 6.98797393987089 -0.03342692 -0.1257668 0.9914965 250 250 250
33.9534783899384 149.532786737199 6.64813610956428 -0.0137097 -0.1435202 0.9895524 250 250 250
34.9590692782316 145.320373833487 5.89152650022327 -0.002539705 -0.1934069 0.9811153 250 250 250
37.7782429445367 145.509670784222 5.97721778417196 0.009066396 -0.2074586 0.9782018 250 250 250
32.6081276900683 145.866958091237 6.0152438992756 -0.003809307 -0.1805161 0.9835647 250 250 250
39.0525260629023 155.33105322819 7.50956334787633 -0.01838538 -0.07464372 0.9970407 250 250 250
39.2476797621132 158.402280828897 7.62029330030866 -0.006347788 -0.002776209 0.999976 250 250 250
36.2815658340496 159.378895774732 7.55269808665043 -0.04111429 0.01273072 0.9990733 250 250 250
39.3933118742122 151.968475903306 7.15475019646708 -0.008846062 -0.1303664 0.9914264 250 250 250
32.7439615047173 151.458588236006 6.86645068399753 -0.01449907 -0.112845 0.9935068 250 250 250
32.4947205195827 156.920190014614 7.28227020702977 -0.03252838 -0.040334 0.9986566 250 250 250
30.9749498651057 152.809043284547 6.98442569079433 -0.01301328 -0.09156366 0.9957142 250 250 250
33.281422914842 160.555272868577 7.33522461824829 -0.04025586 0.03082301 0.9987139 250 250 250
42.5105812129373 160.372644916107 7.50443441796114 0.0164795 0.03939172 0.9990879 250 250 250
41.7213394683389 157.494168465235 7.54178080824168 0.02111057 -0.0198809 0.9995794 250 250 250
44.1319429409751 157.096661968687 7.47273743871033 0.02246129 -0.03158056 0.9992488 250 250 250
47.2051968911553 157.83869917557 7.42831806277056 0.02702384 -0.02292146 0.9993719 250 250 250
46.531923041376 160.219805155883 7.42717556931789 0.02402197 0.03493434 0.9991009 250 250 250
29.5101385963254 175.503849578184 4.89908337100834 0.01941751 0.2702589 0.9625918 250 250 250
29.4171402705284 172.466069568772 5.72162201319121 0.003705765 0.2383326 0.9711765 250 250 250
28.8266090242152 169.201167418468 6.36800611996861 -0.01853236 0.1682853 0.9855641 250 250 250
38.3139772551109 172.050060877039 6.0102902443148 -0.0139267 0.2213193 0.9751019 250 250 250
41.3863933055092 170.50309267964 6.26275885360939 0.01122015 0.1983612 0.9800647 250 250 250
42.9428007004514 172.576672339987 5.74528306328338 0.03614786 0.2542719 0.966457 250 250 250
39.993692717962 174.174701124097 5.3816666204152 0.01609593 0.2778558 0.960488 250 250 250
44.7275229609743 174.649362800566 5.04152312768815 0.05704792 0.2903478 0.9552192 250 250 250
41.8696947547291 176.230530989064 4.6950964553463 0.0358871 0.2870892 0.9572314 250 250 250
39.685225898241 177.67383901344 4.37335309220558 -0.01260891 0.2843598 0.9586347 250 250 250
43.5980810799136 178.271586457876 3.99415160651843 0.05161965 0.292155 0.9549769 250 250 250
41.6205478195701 179.743554074793 3.63722072753532 0.02251279 0.2952985 0.9551398 250 250 250
38.5555146922504 181.949829700606 3.02854745469361 -0.01493894 0.2941642 0.9556381 250 250 250
36.990565849531 179.353332176349 3.74451464961189 -0.03107934 0.2737368 0.9613023 250 250 250
34.6336991129098 183.729255237508 2.35699696384081 -0.01149524 0.2929621 0.9560549 250 250 250
33.7414042451311 180.615927447757 3.29676409113976 0.0001801884 0.2789321 0.9603108 250 250 250
30.6301626548372 183.90353839215 2.28711729765212 -0.009286538 0.3020767 0.9532384 250 250 250
30.2444979052071 181.265214278779 3.14030287248407 -0.003383332 0.3036853 0.9527664 250 250 250
29.7692291788966 178.485883602104 4.0410739943068 0.01143188 0.2881766 0.957509 250 250 250
26.709013975323 181.699896165652 2.9067035739037 -0.0466556 0.3166715 0.9473872 250 250 250
26.3997263558157 178.735953937023 3.91860061993071 -0.02733166 0.3186093 0.947492 250 250 250
26.3017690313093 175.771019908652 4.83755331202165 -0.0106839 0.2737058 0.9617541 250 250 250
26.1230398778238 172.74849309527 5.6070103617691 -0.01272599 0.2234771 0.9746261 250 250 250
23.1774630444154 178.702472145737 3.8146470751098 -0.04028426 0.3445728 0.9378948 250 250 250
23.1409545539168 175.80672469936 4.79739183497375 -0.02587141 0.2813281 0.9592628 250 250 250
23.0562839259525 172.865867464723 5.52901300706804 -0.02067009 0.2236635 0.9744473 250 250 250
22.8477238302306 169.769058270673 6.15294481968869 -0.01813082 0.1726295 0.9848199 250 250 250
25.7583995727221 169.518303935933 6.24938665708953 -0.01811618 0.1683792 0.9855558 250 250 250
20.0924528472948 175.825226894545 4.66356299480294 -0.0364665 0.2879588 0.9569482 250 250 250
20.0371001617004 172.947229243549 5.43733244967807 -0.03052792 0.2316505 0.97232 250 250 250
19.9514377339942 169.969196618587 6.05386210172514 -0.02511167 0.17869 0.9835849 250 250 250
19.7938185250149 166.824746836936 6.5433986368224 -0.02535447 0.1282985 0.9914114 250 250 250
22.550979057459 166.444408735919 6.63774358726896 -0.01667994 0.1230101 0.9922652 250 250 250
17.1326744675823 173.077018209771 5.29903944191907 -0.03711774 0.2411342 0.9697817 250 250 250
17.0980127766031 170.192180560555 5.9394984002385 -0.03426074 0.1850304 0.9821354 250 250 250
17.0141885984184 167.209086336911 6.39260553231657 -0.0340591 0.1332564 0.9904962 250 250 250
16.8357843448485 164.124623339648 6.73543479309465 -0.03250016 0.08871007 0.9955271 250 250 250
19.5429273903097 163.559810486641 6.87557139412385 -0.02645883 0.07772253 0.9966239 250 250 250
14.2923737567756 170.476519286555 5.77538119295029 -0.02870888 0.1936003 0.9806604 250 250 250
14.278950260269 167.635286625991 6.23354992371107 -0.02683794 0.1391165 0.9899123 250 250 250
14.1645940400305 164.703218789067 6.58828291889118 -0.02580922 0.09921249 0.9947315 250 250 250
13.9441836473926 161.729392763011 6.82088240210676 -0.02518206 0.05246443 0.9983053 250 250 250
16.5939562077847 160.956814964075 6.93458241001613 -0.02962674 0.03793821 0.9988408 250 250 250
11.550799870275 168.073354311983 6.1247447895278 -0.0154288 0.1443528 0.989406 250 250 250
11.515599529436 165.378395013351 6.45972515234857 -0.01584764 0.1080838 0.9940155 250 250 250
11.3018495850648 162.619037131479 6.71059811830844 -0.01555382 0.06697193 0.9976336 250 250 250
10.9328915310867 159.91545943509 6.81863589019142 -0.01384647 0.02243674 0.9996524 250 250 250
13.6013629366123 158.793494527083 6.8858965851867 -0.02447349 0.005153168 0.9996872 250 250 250
8.78240464075474 165.998543451957 6.34750750030341 -0.009881387 0.1167858 0.993108 250 250 250
8.72991620441495 163.535870492872 6.61276156252057 -0.009180505 0.08128705 0.9966484 250 250 250
8.35962435078405 161.025864746105 6.75823336216128 -0.01131448 0.03975535 0.9991454 250 250 250
7.76031225675609 158.799684725472 6.81685000940619 -0.0101103 0.01048872 0.9998939 250 250 250
10.3526801320878 157.510037261105 6.81720055931496 -0.00961209 -0.01057232 0.9998979 250 250 250
5.97134492233799 164.243023708834 6.5307189901223 -0.01096489 0.09135677 0.9957579 250 250 250
5.88883744381071 162.134047057699 6.67496707133148 -0.01790323 0.04957661 0.9986098 250 250 250
5.3030685462581 160.13447617809 6.72711243901056 -0.02004416 0.02971421 0.9993575 250 250 250
4.51680220088529 158.319140650535 6.78300484321446 -0.002762716 0.01842318 0.9998265 250 250 250
7.00573220313687 156.817282241396 6.79464352768547 -0.008652754 -0.03706935 0.9992752 250 250 250
3.02049274030247 162.84147387359 6.58225730795936 -0.02926847 0.05588413 0.9980082 250 250 250
2.93199171333502 161.20613289919 6.62696738382348 -0.01980807 0.04856568 0.9986235 250 250 250
2.3610827119151 159.723460685058 6.67899198278399 0.01171002 0.07121515 0.9973922 250 250 250
1.50951148353801 158.528068396161 6.81668221569986 0.03343253 0.08115975 0.9961402 250 250 250
3.62878233199403 156.86406782922 6.82505693852033 0.01183201 0.008951623 0.9998899 250 250 250
-0.00688192181793568 161.606751594928 6.53178560234471 -0.01547437 0.06048886 0.9980489 250 250 250
-0.00688192181793568 160.400552108844 6.69847635896315 0.02691058 0.09260549 0.9953392 250 250 250
-0.00688192181793568 159.721374485601 6.80234814443033 0.05164642 0.1045222 0.9931806 250 250 250
-0.00688192181793568 162.947049246113 6.45929978995927 -0.03717724 0.0601971 0.9974939 250 250 250
2.95582055713352 164.621378210366 6.4474184993014 -0.02723522 0.09467232 0.9951358 250 250 250
-0.00688192181793568 164.711187386993 6.30658934845243 -0.04003426 0.09466058 0.9947043 250 250 250
2.9232279656158 166.667871477763 6.20587358091389 -0.02424129 0.1244536 0.9919292 250 250 250
-0.00688192181793568 166.72659286248 6.10009728344236 -0.03624655 0.1231236 0.9917292 250 250 250
2.91042861894685 168.87678050289 5.90182711004252 -0.02431486 0.1628262 0.9863551 250 250 250
-0.00688192181793568 168.904516695672 5.79675191238852 -0.03298811 0.1655799 0.9856445 250 250 250
2.89503007295436 171.205286896892 5.43692739353349 -0.02714171 0.2209093 0.9749166 250 250 250
-0.00688192181793568 171.208091296163 5.34439718011464 -0.03201245 0.2232871 0.9742269 250 250 250
2.86896112973884 173.626372666801 4.8077758072713 -0.02879176 0.2649038 0.9638449 250 250 250
-0.00688192181793568 173.609033271313 4.7145925877724 -0.03068098 0.2651946 0.9637067 250 250 250
2.84084018705737 176.132616414546 4.07176153944531 -0.0294711 0.307749 0.9510111 250 250 250
-0.00688192181793568 176.110831020216 3.99960650509878 -0.02865149 0.308221 0.9508832 250 250 250
2.82116664217744 178.673880953178 3.16144327635724 -0.02988715 0.3528426 0.9352052 250 250 250
-0.00688192181793568 178.635884763066 3.08832583288619 -0.02730485 0.3527676 0.9353125 250 250 250
2.78360650195253 181.285426473518 2.12241441551634 -0.02534389 0.37353 0.9272718 250 250 250
-0.00688192181793568 181.178448901359 2.08985548961485 -0.02303757 0.3691715 0.9290757 250 250 250
2.74470401207697 183.783359623427 1.10555463015589 -0.02085311 0.3784158 0.9254008 250 250 250
-0.00688192181793568 183.761437429132 1.0755478785902 -0.01911032 0.3710075 0.9284332 250 250 250
5.59830851942137 181.363778653127 2.18756700168526 -0.02549564 0.3823889 0.9236497 250 250 250
5.57082882657301 183.805931617552 1.13637363151019 -0.02112725 0.3937025 0.9189951 250 250 250
8.47136427170354 181.428827036198 2.24121610022299 -0.02266745 0.388632 0.9211142 250 250 250
8.46743127272711 183.828982411553 1.1679610639145 -0.02138143 0.4029308 0.9149806 250 250 250
11.3993708596847 181.597843392211 2.22856156914135 -0.0272869 0.3850515 0.9224916 250 250 250
11.3664533682515 183.853743205109 1.24217771647449 -0.03230894 0.392271 0.9192821 250 250 250
14.3257700480841 181.628110384334 2.29080875919141 -0.03408322 0.3704662 0.9282204 250 250 250
14.3268644477993 183.882915797517 1.41990919209456 -0.04210645 0.360427 0.9318366 250 250 250
17.2672172325673 181.66251557538 2.35855466656042 -0.03682391 0.3526886 0.9350159 250 250 250
17.2721163812923 183.911883189978 1.59673169607619 -0.04352045 0.3210557 0.9460598 250 250 250
20.2595454538086 181.717030361193 2.43043930722731 -0.04008691 0.3360063 0.9410062 250 250 250
20.2923603452685 183.941602982244 1.77805470513656 -0.04643324 0.28369 0.9577911 250 250 250
23.3639641458782 181.736524356119 2.54168225952614 -0.05780113 0.3241774 0.9442288 250 250 250
23.5122895072762 183.973306373993 1.97136748295157 -0.06451641 0.2731358 0.9598096 250 250 250
26.9401888151594 184.007061765208 2.17716592939216 -0.05144851 0.2939532 0.9544342 250 250 250
20.1546113311179 178.681028751317 3.70672846882081 -0.03577104 0.3529283 0.9349663 250 250 250
17.2031862992315 178.70226694579 3.5881218309384 -0.03360065 0.3491351 0.9364698 250 250 250
17.160102860444 175.909153672703 4.51184702491229 -0.03832601 0.2901945 0.9561999 250 250 250
14.287380558075 178.744743334736 3.47207538301469 -0.02648894 0.3473537 0.93736 250 250 250
14.2779926605183 176.023381642975 4.35522175317429 -0.02875619 0.289641 0.9567033 250 250 250
14.286089508411 173.263339761281 5.12829384885591 -0.03042612 0.2467893 0.9685914 250 250 250
11.4084766073149 176.138875012917 4.28739568957614 -0.01857729 0.2909162 0.9565682 250 250 250
11.4558093949964 173.441521714908 4.99647639566164 -0.01644669 0.2505246 0.9679706 250 250 250
11.4997392835636 170.765748611283 5.67161948870446 -0.01475255 0.2030277 0.9790618 250 250 250
8.6172101337469 173.56570188259 4.93083485649496 -0.01262274 0.2561042 0.9665667 250 250 250
8.67793221794387 170.995367351524 5.59425055883986 -0.01020352 0.2093916 0.9777786 250 250 250
8.72838575481325 168.451606213543 6.02955552680097 -0.01131306 0.1488861 0.9887896 250 250 250
5.8047396656973 171.139999113884 5.52913163828717 -0.01603756 0.2150494 0.9764715 250 250 250
5.84392430549943 168.725992742133 5.9638359689046 -0.01248576 0.1557013 0.9877253 250 250 250
5.88705904427353 166.421255341945 6.27031812039208 -0.009702615 0.123499 0.9922972 250 250 250
5.75307202914389 173.617275469168 4.88733781156515 -0.01999913 0.2621228 0.9648272 250 250 250
8.54448385267405 176.18374540124 4.2177778670693 -0.01960243 0.2968429 0.9547251 250 250 250
5.69008419553659 176.164251406313 4.15483812719948 -0.02563525 0.3041255 0.952287 250 250 250
8.49155936644774 178.778840725862 3.30851445995671 -0.02365231 0.3520817 0.9356704 250 250 250
5.64122095825334 178.73089233834 3.24082038694921 -0.02937188 0.3526499 0.9352943 250 250 250
11.3818262642507 178.783868124553 3.38159930656125 -0.02081698 0.3498344 0.9365802 250 250 250
5.99730271558243 155.066140097134 6.64077028648125 -0.009470504 -0.07241046 0.99733 250 250 250
8.31878101141361 153.303882955764 6.46014196474009 -0.04009002 -0.123909 0.9914834 250 250 250
9.50426385288961 155.295793037366 6.76156893004319 -0.023785 -0.07420281 0.9969595 250 250 250
10.6394641574517 151.542241414235 6.27957669923252 -0.06403493 -0.1575897 0.9854263 250 250 250
11.9752816098029 153.73801764278 6.71818517258389 -0.04083655 -0.09762103 0.9943855 250 250 250
12.9549660048383 156.108042825977 6.82732482543011 -0.02057494 -0.0264515 0.9994383 250 250 250
14.4876471559553 152.230482035119 6.69516002857623 -0.05351897 -0.1197107 0.9913653 250 250 250
15.548471029874 154.789701569077 6.8468893578384 -0.02661708 -0.04056811 0.9988222 250 250 250
16.223467704205 157.771290993114 6.96240089652632 -0.02857025 -0.009255277 0.9995489 250 250 250
18.1159498616831 153.523344298649 6.86784433363483 -0.02319235 -0.05552066 0.9981881 250 250 250
18.8396045733507 156.777199851828 7.00858264075744 -0.02340158 -0.02205718 0.9994828 250 250 250
19.2413176688042 160.188067564143 7.03753613947224 -0.02515029 0.02280851 0.9994234 250 250 250
21.3607680672135 155.786733909598 7.02427936792234 -0.02062654 -0.03334024 0.9992312 250 250 250
21.838276892941 159.447706156824 7.10430414084575 -0.02160098 0.01048708 0.9997117 250 250 250
22.2128950454459 163.009874629763 6.98005129818277 -0.01852494 0.06945687 0.9974129 250 250 250
24.3969748770353 158.787441128659 7.16640598093364 -0.01323447 0.0005870849 0.9999123 250 250 250
24.8905149485906 162.503988361421 7.06011027109728 -0.01369042 0.0603604 0.9980828 250 250 250
25.3387143819459 166.087873828708 6.71814028509557 -0.0172026 0.1159942 0.9931009 250 250 250
27.5745217000731 161.994305894066 7.11180890139262 -0.01251058 0.04808234 0.9987651 250 250 250
28.1632659968514 165.663178339236 6.83903832238165 -0.02068738 0.1042702 0.9943338 250 250 250
30.3460120287879 161.413179645306 7.1736317978031 -0.02352409 0.04068591 0.998895 250 250 250
29.6262219161145 157.656413223011 7.19423087994216 -0.02333558 -0.01808533 0.9995641 250 250 250
26.9635987090669 158.204091880476 7.16511386251991 -0.008148503 -0.008657721 0.9999293 250 250 250
26.2257082511042 154.181523127357 7.03020772262947 -0.002690651 -0.05861215 0.9982772 250 250 250
28.6900912097442 153.612777275374 7.00781420970742 -0.009846489 -0.07226597 0.9973368 250 250 250
23.8211410768971 154.899073140613 7.05027884240593 -0.01209073 -0.04551934 0.9988903 250 250 250
22.8779309723692 151.04281894421 6.79632467099795 -0.009901501 -0.09747823 0.9951884 250 250 250
25.2254098114337 150.024274809288 6.68837881159105 -0.0004356685 -0.1191769 0.992873 250 250 250
20.5090514888742 152.25510602871 6.84072694694218 -0.01826629 -0.07407209 0.9970856 250 250 250
18.9908967839767 149.157441834883 6.52121459884583 -0.0527833 -0.1696976 0.9840816 250 250 250
21.2617334429874 147.70336081331 6.32501245615778 -0.04206502 -0.1876028 0.9813438 250 250 250
16.764297813453 150.663848842838 6.62894029581003 -0.05752405 -0.1446003 0.9878166 250 250 250
15.0347957135589 148.226107677264 5.9172929872675 -0.09120663 -0.2164198 0.9720308 250 250 250
17.1610006102104 146.654036686399 5.7101008911896 -0.08747896 -0.239182 0.9670261 250 250 250
12.9311029610487 149.802693066955 6.10127077063695 -0.08212996 -0.1869676 0.9789268 250 250 250
19.2813316583905 145.086274894411 5.50347950746318 -0.07415844 -0.2437344 0.9670026 250 250 250
21.3736785638535 143.539204097039 5.29958557302694 -0.05755458 -0.2329419 0.970786 250 250 250
23.463768269904 146.34798096605 6.10493123843431 -0.02990372 -0.1944262 0.9804612 250 250 250
23.4456422746213 142.007215495742 5.0976773755739 -0.03312185 -0.225012 0.9737929 250 250 250
25.5207181845791 145.086206494429 5.86418146983986 -0.01585442 -0.1987082 0.9799305 250 250 250
27.3979043960381 149.087229253156 6.55942774515079 0.000194736 -0.1362371 0.9906762 250 250 250
27.5912283957252 143.922107197388 5.61490094096556 -0.005101348 -0.2076239 0.9781954 250 250 250
29.2117864239721 148.103466509182 6.40740985346372 -0.002961083 -0.1523838 0.988317 250 250 250
29.7106702441367 142.896757264237 5.39740823506842 -0.003163543 -0.2193716 0.9756362 250 250 250
30.8631158942107 146.973293603311 6.21977801479523 -0.007030108 -0.1671893 0.9858997 250 250 250
32.2487028836092 142.277156025489 5.28145423399565 -0.002848003 -0.2326664 0.9725524 250 250 250
32.1117661192473 139.257331011404 4.44812976961981 -0.003226987 -0.2672961 0.963609 250 250 250
35.1363876820842 139.147241240055 4.37902067198058 0.01773585 -0.2868494 0.9578115 250 250 250
34.7401636852022 141.64100199105 5.1596573781935 0.01117688 -0.2462402 0.9691444 250 250 250
29.0533378652086 139.370293582006 4.51462684293883 -0.001369319 -0.2443539 0.9696851 250 250 250
25.8099475093067 140.547730875575 4.82429547172203 -0.009511646 -0.2298512 0.9731793 250 250 250
38.0537837228267 139.078841257857 4.2358338592452 0.04161748 -0.2911541 0.9557705 250 250 250
38.1036473098496 142.191758647714 5.18564830267931 0.03201362 -0.2572263 0.9658208 250 250 250
40.8197935029678 139.014032274723 4.10007913207561 0.04125221 -0.2889087 0.9564674 250 250 250
40.8206399527475 142.348428806941 5.10293989920432 0.03876895 -0.2630425 0.964005 250 250 250
40.4479327247452 145.720958329234 5.94355003043405 0.02885116 -0.2193589 0.9752176 250 250 250
43.4116270034386 142.375378399927 5.00436056235977 0.0336177 -0.2662768 0.9633102 250 250 250
43.0830035639634 145.828004301375 5.88362630227931 0.0308972 -0.2241137 0.9740731 250 250 250
42.6288618821546 149.12033484454 6.59511436711329 0.03041035 -0.1831693 0.9826109 250 250 250
39.887022945723 148.933808093084 6.63617359392755 0.01145743 -0.1805463 0.9834998 250 250 250
42.1515668063714 152.120426463761 7.09520587446359 0.02930173 -0.1324755 0.9907531 250 250 250
45.4330858773503 149.169617031714 6.50668815262637 0.03079146 -0.1812628 0.9829525 250 250 250
45.1187580341547 152.236638033517 7.01657795742664 0.03019154 -0.1329618 0.9906612 250 250 250
44.6717940754779 154.944046128909 7.31487027979554 0.02679866 -0.08281688 0.9962044 250 250 250
41.7352973397063 154.975133920818 7.40688428709873 0.02636788 -0.07802225 0.9966028 250 250 250
48.0059554827565 152.364443400255 6.94823568771284 0.02627731 -0.1321137 0.9908862 250 250 250
47.7057436858871 155.291620638452 7.2740664841648 0.02742961 -0.07927132 0.9964756 250 250 250
51.0030674277528 152.547481752619 6.90556799256718 0.02650494 -0.1262265 0.9916473 250 250 250
50.7424848705699 155.663511341667 7.21214633152963 0.03072299 -0.06887448 0.9971521 250 250 250
50.2170575823133 158.67765915723 7.35794623733495 0.03038795 -0.004111854 0.9995297 250 250 250
53.8819158035274 156.216012197878 7.1506387162871 0.03141962 -0.05790897 0.9978273 250 250 250
53.2415252451902 159.610019314581 7.2651862427259 0.0277566 0.01264475 0.9995347 250 250 250
51.6077660203789 162.994074233875 7.12319749842872 0.02353154 0.07557949 0.9968621 250 250 250
49.1526940093157 161.59467899807 7.29478099127381 0.02699658 0.05790232 0.9979572 250 250 250
48.6155874240987 166.333976964659 6.86683650264712 0.01661284 0.1315205 0.9911742 250 250 250
46.8990342958347 164.841933952966 7.08340580878458 0.01768253 0.1083483 0.9939557 250 250 250
44.7618212770481 163.090518208775 7.28822207423078 0.01559544 0.08099009 0.9965929 250 250 250
43.1892159113214 166.805526441938 6.85696125521717 0.01443172 0.1409114 0.989917 250 250 250
41.5547000117071 164.424796661527 7.17792389668608 0.008908682 0.1053887 0.9943912 250 250 250
40.115171086347 161.499637222805 7.46596584047265 0.005339401 0.06530157 0.9978513 250 250 250
44.7285703357017 168.815220518911 6.50893252704226 0.01679399 0.1764396 0.9841682 250 250 250
50.2213368561996 167.868701565245 6.62664248390804 0.02535519 0.1769338 0.9838961 250 250 250
46.2982473271905 170.621356248861 6.11645770418453 0.03120065 0.2300333 0.9726825 250 250 250
51.9477353069013 169.49518474195 6.18883450409834 0.06570958 0.263126 0.9625211 250 250 250
48.0771042892399 172.436999576337 5.50408121355659 0.06801582 0.2932328 0.9536186 250 250 250
53.3244089236196 170.88944997909 5.4964043843045 0.0940633 0.3135413 0.9449042 250 250 250
49.4202448146852 173.850348408511 4.90030495194043 0.0903629 0.320025 0.9430899 250 250 250
46.1873153810608 176.301530170586 4.42396106340976 0.06777669 0.298912 0.9518708 250 250 250
57.0121896888681 156.796899046701 7.10447193455208 0.03325335 -0.04858078 0.9982656 250 250 250
54.0521932842124 152.750150899874 6.84048540950504 0.03059847 -0.1194358 0.9923703 250 250 250
57.0714839234367 152.971732642207 6.76303311716214 0.03303335 -0.1145925 0.9928632 250 250 250
60.0791422906883 153.130078600997 6.68189043202966 0.03037869 -0.1090838 0.9935682 250 250 250
57.0736427978749 149.376013977999 6.24368915232232 0.03013444 -0.1752848 0.9840565 250 250 250
60.0517865728077 149.414352168022 6.16400210431101 0.02447271 -0.1713981 0.9848979 250 250 250
63.0305416725814 149.421021166286 6.12812524489803 0.01955002 -0.1692937 0.9853717 250 250 250
63.0305416725814 153.166638391483 6.58654513184345 0.02675125 -0.1058736 0.9940197 250 250 250
60.0596611207583 145.86983089049 5.42004756042649 0.0227928 -0.2343595 0.9718828 250 250 250
63.0305416725814 145.882963687072 5.36165855687234 0.01836057 -0.2351736 0.9717799 250 250 250
60.1296001025566 142.328285012183 4.45949218228773 0.02487733 -0.2791628 0.9599215 250 250 250
63.0305416725814 142.348052607039 4.40193680351661 0.02245726 -0.2801005 0.959708 250 250 250
60.174205440948 138.708215954312 3.33638584957813 0.02604625 -0.2971053 0.9544894 250 250 250
63.0305416725814 138.712388353227 3.25427808344682 0.02438642 -0.2984508 0.9541134 250 250 250
57.2443734284419 142.315083815619 4.53858714295312 0.02901267 -0.2774968 0.9602883 250 250 250
57.319408208914 138.704009355407 3.41844979697084 0.02981129 -0.2952664 0.9549497 250 250 250
54.3973395943875 142.311800616473 4.62965477237761 0.03145184 -0.2754798 0.9607922 250 250 250
54.4697965505304 138.73366074769 3.52589815338222 0.03300098 -0.2935178 0.9553838 250 250 250
51.5763789785475 142.312724016233 4.72356367293765 0.03179849 -0.2727025 0.9615728 250 250 250
51.6605665316375 138.79056953288 3.65047055221203 0.03361777 -0.2909881 0.9561359 250 250 250
48.7932606528589 142.321239814017 4.81920074179794 0.03030463 -0.2705414 0.9622312 250 250 250
48.8801842052369 138.84689691822 3.76728329368631 0.03090819 -0.2906549 0.9563286 250 250 250
46.0567227150477 142.34716340727 4.9194430532097 0.02941977 -0.2690013 0.9626904 250 250 250
46.1444798922088 138.902300903801 3.85591257062038 0.03021721 -0.2913833 0.956129 250 250 250
43.4653680144524 138.956610489667 3.97302509639164 0.03566095 -0.2895439 0.9565002 250 250 250
48.5293777965349 145.797497909314 5.72731631170926 0.02775565 -0.2258063 0.9737768 250 250 250
45.7726917889673 145.813742905087 5.80633218489524 0.02919346 -0.2243203 0.9740781 250 250 250
48.2639559406114 149.187230027131 6.42215859962533 0.02581115 -0.1806462 0.9832094 250 250 250
51.3435069641528 145.810049306048 5.65222702500138 0.02716612 -0.2296659 0.9728903 250 250 250
51.1518587640296 149.226696816859 6.37464839948994 0.02415582 -0.1804553 0.9832865 250 250 250
54.2131982923106 145.839700698331 5.57555919495432 0.02868453 -0.2326639 0.9721341 250 250 250
54.0954947479431 149.304843796521 6.32082402599783 0.02858062 -0.178581 0.98351 250 250 250
57.1228651350647 145.858476493445 5.49647705928558 0.02827961 -0.2335427 0.9719352 250 250 250
63.0305416725814 163.49972110228 6.81811113407798 0.0183986 0.1124311 0.9934892 250 250 250
4 0 7 8 9
4 0 9 10 11
4 0 12 13 7
4 0 11 6 12
4 1 14 6 15
4 1 16 17 14
4 1 15 18 16
4 2 19 20 21
4 2 22 23 24
4 2 25 26 22
4 3 27 28 29
4 3 30 31 27
4 3 29 32 30
4 4 33 34 35
4 4 28 36 33
4 4 37 29 28
4 4 38 39 37
4 4 35 40 38
4 5 41 42 43
4 5 43 44 45
4 6 14 46 47
4 6 47 48 12
4 6 11 49 15
4 49 11 10 50
4 49 50 51 52
4 49 52 18 15
4 52 51 53 54
4 52 54 55 18
4 55 54 56 57
4 55 57 58 59
4 55 59 16 18
4 59 58 60 61
4 59 61 17 16
4 61 60 62 63
4 61 63 64 17
4 64 46 14 17
4 64 63 65 66
4 64 66 67 46
4 67 68 47 46
4 67 66 69 70
4 67 70 71 68
4 71 72 73 68
4 71 70 74 75
4 71 75 76 72
4 76 77 78 72
4 76 75 79 80
4 76 80 81 77
4 81 82 83 77
4 81 80 84 85
4 81 85 86 82
4 86 87 88 82
4 86 85 89 90
4 86 90 91 87
4 91 92 93 87
4 91 90 94 95
4 91 95 96 92
4 96 97 98 92
4 96 95 99 100
4 96 100 101 97
4 101 102 103 97
4 101 100 104 105
4 101 105 106 102
4 106 107 108 102
4 106 105 109 110
4 106 110 111 107
4 109 105 104 112
4 112 104 113 114
4 114 113 115 116
4 116 115 117 118
4 118 117 119 120
4 120 119 121 122
4 122 121 123 124
4 124 123 125 126
4 126 125 127 128
4 128 127 129 130
4 129 127 131 132
4 132 131 133 134
4 134 133 135 136
4 136 135 137 138
4 138 137 139 140
4 140 139 141 142
4 142 141 143 144
4 144 143 65 145
4 145 65 63 62
4 143 69 66 65
4 143 141 146 69
4 146 74 70 69
4 146 141 139 147
4 146 147 148 74
4 148 79 75 74
4 148 147 149 150
4 148 150 151 79
4 151 84 80 79
4 151 150 152 153
4 151 153 154 84
4 154 89 85 84
4 154 153 155 156
4 154 156 157 89
4 157 94 90 89
4 157 156 158 159
4 157 159 160 94
4 160 99 95 94
4 160 159 117 115
4 160 115 113 99
4 159 158 119 117
4 158 156 155 161
4 158 161 121 119
4 161 155 162 163
4 161 163 123 121
4 163 162 164 165
4 163 165 125 123
4 165 164 133 131
4 165 131 127 125
4 164 162 152 166
4 164 166 135 133
4 166 152 150 149
4 166 149 137 135
4 162 155 153 152
4 149 147 139 137
4 113 104 100 99
4 108 167 103 102
4 167 168 169 103
4 169 168 170 171
4 169 171 172 98
4 169 98 97 103
4 172 171 173 174
4 172 174 175 93
4 172 93 92 98
4 175 174 176 177
4 175 177 178 88
4 175 88 87 93
4 178 177 179 180
4 178 180 181 83
4 178 83 82 88
4 181 180 182 183
4 181 183 184 78
4 181 78 77 83
4 184 183 185 186
4 184 186 48 73
4 184 73 72 78
4 186 185 187 13
4 186 13 12 48
4 187 188 38 40
4 187 40 7 13
4 187 185 189 188
4 189 190 191 188
4 189 185 183 182
4 189 182 192 190
4 192 193 194 190
4 192 182 180 179
4 192 179 195 193
4 195 196 197 193
4 195 179 177 176
4 195 176 198 196
4 198 199 200 196
4 198 176 174 173
4 198 173 201 199
4 201 173 171 170
4 200 202 197 196
4 202 203 204 197
4 204 203 205 206
4 204 206 207 194
4 204 194 193 197
4 207 206 208 209
4 207 209 39 191
4 207 191 190 194
4 209 208 210 211
4 209 211 37 39
4 211 210 212 32
4 211 32 29 37
4 212 213 214 215
4 212 215 30 32
4 212 210 216 213
4 216 210 208 217
4 217 208 206 205
4 215 214 218 219
4 215 219 31 30
4 219 218 220 221
4 219 221 222 31
4 222 221 223 224
4 222 224 225 226
4 222 226 27 31
4 226 225 227 36
4 226 36 28 27
4 227 225 228 229
4 227 229 230 231
4 227 231 33 36
4 231 230 43 42
4 231 42 34 33
4 230 229 232 233
4 230 233 44 43
4 233 232 234 235
4 233 235 236 44
4 236 235 237 238
4 236 238 239 240
4 236 240 45 44
4 240 239 241 242
4 240 242 243 45
4 243 41 5 45
4 243 242 244 245
4 243 245 246 41
4 246 34 42 41
4 246 245 9 8
4 246 8 35 34
4 245 244 10 9
4 244 242 241 247
4 244 247 50 10
4 247 241 248 249
4 247 249 51 50
4 249 248 250 251
4 249 251 53 51
4 251 250 252 253
4 251 253 254 53
4 254 56 54 53
4 252 250 22 26
4 250 248 23 22
4 248 241 239 23
4 239 238 24 23
4 238 237 255 24
4 255 237 256 257
4 255 257 258 19
4 255 19 2 24
4 258 257 259 260
4 258 260 261 262
4 258 262 20 19
4 261 260 263 264
4 264 263 265 266
4 266 265 267 268
4 267 265 269 270
4 270 269 271 272
4 272 271 273 274
4 274 273 275 276
4 276 275 277 278
4 278 277 223 279
4 279 223 221 220
4 277 275 280 281
4 277 281 224 223
4 281 280 282 228
4 281 228 225 224
4 282 280 283 284
4 282 284 234 232
4 282 232 229 228
4 284 283 285 286
4 284 286 256 234
4 286 285 287 259
4 286 259 257 256
4 287 285 271 269
4 287 269 265 263
4 287 263 260 259
4 285 283 273 271
4 283 280 275 273
4 256 237 235 234
4 191 39 38 188
4 73 48 47 68
4 40 35 8 7
4 25 2 21 288
0 0 0 255 250 250 250 255 0 0 0 255 255 255 255 255 0 0
